<?xml version="1.0" encoding="utf-8"?>
<!-- Generator: Adobe Illustrator 27.0.0, SVG Export Plug-In . SVG Version: 6.00 Build 0)  -->
<svg version="1.1" id="Layer_1" xmlns="http://www.w3.org/2000/svg" xmlns:xlink="http://www.w3.org/1999/xlink" x="0px" y="0px"
	 viewBox="0 0 70.9 70.9" style="enable-background:new 0 0 70.9 70.9;" xml:space="preserve">
<style type="text/css">
	.st0{fill:#EE3F38;}
	.st1{fill:none;}
	.st2{fill:#FFFFFF;}
</style>
<g>
	<path class="st0" d="M10,0h50.8c5.5,0,10,4.5,10,10v50.8c0,5.5-4.5,10-10,10H10c-5.5,0-10-4.5-10-10V10C0,4.5,4.5,0,10,0z"/>
	<rect class="st1" width="71.1" height="70.9"/>
	<path class="st2" d="M58.7,36.4c-0.7,0.2-1.4,0.2-2.2,0.3c0-0.5,0-1-0.1-1.5c-0.5-1.9-2.5-2.7-4.1-1.3c-1.8,1.6-1.6,4.5,0.4,5.5
		c-0.2,0.5-0.4,1-0.7,1.6c-1.7,3.5-3.9,7-6.5,9.9c-1.2,1.4-1.9,3.3-1.7,0.7c0.1-2.1,0.2-4.2,0.5-6.3c0.7-5.2,1.9-10.3,3.1-15.4
		c0.6-1.4,1.2-2.9,1.8-4.3c1.2-2.8,4.4-7.9,3.8-11.1c-0.9-4.8-4.1,1.1-4.6,2.6c-1.5,4.1-2.6,8.3-3.6,12.5c-2,4.7-4,9.5-6.3,14
		c-1.4,2.7-2.9,5.5-4.8,7.9c-0.5,0.7-1.6,2.3-2.7,2.8c0-0.1-0.1-0.3-0.1-0.8c-0.4-4.1,0.9-8.6,1.7-12.6c0.5-2.5,1.1-5,1.7-7.6
		c2.5-6,4.3-11.2,4.8-13c0.3-0.9,3-11.2-1.2-7.6c-1,0.9-1.5,3.2-1.8,4.4c-1,3.1-1.9,6.2-2.7,9.3c-0.3,1-1.2,4.3-2.3,8.5
		c-0.7,1.6-1.4,3.2-2.2,4.8c-1.8,3.6-3.7,7.2-6,10.6c-1,1.6-2.1,3.3-3.5,4.6c-0.2,0.2-1.1,1.1-1.7,1.4v-0.1
		c-0.9-3.4,0.5-8.4,1.1-11.7c0.5-3.1,1.2-6.1,1.9-9.2c1.3-0.3,2.4-0.8,3.4-2.1c2.1-2.5,3.2-6,4.2-9.1c0.6-1.7,4.3-12.6-0.6-11.9
		c-3.6,0.5-5.5,8.4-6.3,11.1c-1.1,3.2-2,6.5-2.8,9.8c-2.2,0.5-4.5,0.6-6.6,1c-4.2,0.8-8.1,1.4-12,2.1v2.6c5.9-1,11.8-1.9,17.7-2.9
		h0.1c-0.8,3.5-1.5,7-2,10.5c-0.4,2.6-2.5,10.2,0.1,12.3c3.5,2.8,8.5-4.2,13-13.1c-1,6.2-1,11.6,1.9,11.5c2.6,0,4.8-3.6,6.1-5.5
		c1.9-2.8,3.6-5.9,5-9c-0.9,4-1.8,8.9-0.2,11.6c2.8,4.9,8.9-5.5,10.1-7.4c1.1-1.7,2.9-4.3,4-7c2.7-0.2,5.8-1.4,8-2
		c2.4-0.6,4.8-1.2,7.2-1.8v-2.7C66.8,34.4,62.8,35.5,58.7,36.4z M22.3,28.8c1.3-4.6,3.2-8.6,5-12.8c-0.1,0.9-0.1,1.7-0.3,2.6
		c-0.6,3.1-1.5,6.1-2.8,9c-0.7,1.8-1.4,3.5-2.8,4.5C21.7,31,22,29.9,22.3,28.8z"/>
</g>
</svg>
