<?xml version="1.0" standalone="no"?>
<!DOCTYPE svg PUBLIC "-//W3C//DTD SVG 20010904//EN"
 "http://www.w3.org/TR/2001/REC-SVG-20010904/DTD/svg10.dtd">
<svg version="1.0" xmlns="http://www.w3.org/2000/svg"
 width="700.000000pt" height="700.000000pt" viewBox="0 0 700.000000 700.000000"
 preserveAspectRatio="xMidYMid meet">
<metadata>
Created by potrace 1.14, written by Peter Selinger 2001-2017
</metadata>
<g transform="translate(0.000000,700.000000) scale(0.100000,-0.100000)"
fill="#000000" stroke="none">
<path d="M0 5214 l0 -1787 33 6 c223 37 904 156 1047 182 102 18 275 45 385
60 110 14 239 32 286 41 l85 15 24 97 c41 173 130 493 187 672 30 96 86 276
123 400 131 433 242 664 384 798 76 72 132 96 222 97 63 0 75 -3 108 -29 23
-17 49 -51 65 -85 25 -53 26 -64 26 -216 -1 -241 -40 -419 -197 -894 -136
-411 -212 -586 -332 -761 -104 -152 -217 -244 -346 -281 -25 -7 -48 -15 -52
-18 -8 -8 -107 -457 -148 -671 -17 -91 -55 -289 -85 -440 -30 -151 -62 -327
-72 -390 -30 -195 -21 -560 14 -560 15 0 118 89 190 163 102 107 147 166 285
378 227 346 382 617 578 1009 189 377 252 528 305 726 114 431 301 1105 357
1289 33 110 80 269 104 354 82 292 127 371 245 431 70 36 108 23 135 -45 33
-88 8 -345 -61 -634 -51 -211 -230 -719 -423 -1201 -81 -203 -95 -249 -146
-470 -125 -550 -239 -1112 -261 -1285 -17 -130 -23 -436 -10 -495 l7 -30 30
17 c75 44 280 301 425 533 209 332 436 795 749 1523 l154 357 71 283 c122 485
263 929 347 1091 25 49 72 124 104 167 125 169 214 182 269 41 19 -48 23 -76
23 -172 0 -187 -38 -302 -236 -715 -66 -137 -164 -354 -218 -482 -96 -226
-100 -240 -164 -515 -190 -818 -255 -1222 -286 -1767 -10 -178 -8 -221 10
-221 5 0 30 30 56 68 27 37 89 117 139 177 242 291 415 560 587 911 l81 165
-55 49 c-65 58 -99 126 -105 215 -9 119 57 251 159 316 44 29 63 34 123 37 62
3 75 0 120 -27 86 -49 135 -147 135 -264 l0 -49 73 7 c39 4 151 25 247 46 260
60 388 92 1063 270 l37 10 0 1644 0 1645 -3500 0 -3500 0 0 -1786z"/>
<path d="M2580 5153 c-128 -295 -233 -557 -293 -730 -49 -141 -171 -572 -164
-579 9 -10 117 117 152 180 99 178 269 630 335 895 49 193 94 471 78 471 -3 0
-52 -107 -108 -237z"/>
<path d="M1645 3438 c-27 -5 -394 -65 -815 -134 -421 -68 -780 -127 -797 -130
l-33 -6 0 -1584 0 -1584 3500 0 3500 0 0 1720 c0 946 -2 1720 -5 1720 -25 0
-758 -191 -885 -230 -213 -66 -403 -114 -512 -130 l-87 -12 -64 -131 c-120
-245 -491 -827 -676 -1062 -135 -170 -279 -297 -381 -336 -171 -65 -298 57
-346 334 -32 184 -3 503 82 874 3 15 -33 -50 -80 -145 -155 -313 -373 -671
-555 -916 -95 -126 -223 -246 -307 -287 -56 -28 -78 -33 -139 -34 -61 0 -77 4
-112 27 -77 51 -125 186 -138 393 -9 138 17 482 51 670 3 17 -38 -51 -92 -150
-442 -821 -801 -1211 -1063 -1157 -190 40 -271 236 -242 584 11 136 44 358 77
511 8 39 32 179 54 313 42 261 94 533 141 738 16 70 29 134 29 142 0 16 -30
17 -105 2z"/>
</g>
</svg>
