<?xml version="1.0" encoding="utf-8"?><svg viewBox="0 0 1536 1024" xmlns="http://www.w3.org/2000/svg" xmlns:xlink="http://www.w3.org/1999/xlink"><view id="a1" viewBox="1024 552 24 24"/><svg version="1.1" id="aСлой_1" x="1024" y="552" viewBox="0 0 24 24" style="enable-background:new 0 0 24 24" xml:space="preserve" width="24" height="24" xmlns="http://www.w3.org/2000/svg"><style>.ast3{fill:#8e191c}</style><g id="ag8" transform="matrix(1.33333 0 0 -1.33333 0 543.053)"><g id="ag10" transform="scale(.1)"><path id="apath12" d="m167.9 3961.4 4.5 2.7.1 99.6-4.3 4.2-.1-40.9-.2-65.6" style="fill:#231f20"/><path id="apath14" d="M143.9 4028.8c-.1 0-.1-.1-.2-.2l-.1-.1-.1-.1-.1-.1c-.1 0-.1-.1-.2-.1l-.1-.1c-.1 0-.1-.1-.2-.1s-.1-.1-.2-.1l-.2-.2-.2-.2-.2-.2-.2-.2-.2-.2-.2-.2-.2-.2-.2-.2-.2-.2c-.1-.1-.2-.1-.2-.2-.1-.1-.2-.1-.2-.2-.1-.1-.2-.1-.2-.2-.1-.1-.2-.1-.2-.2-.1-.1-.2-.1-.3-.2-.1-.1-.2-.1-.3-.2-.1-.1-.2-.1-.3-.2-.1-.1-.2-.1-.3-.2-.1-.1-.2-.1-.3-.2-.1-.1-.2-.1-.3-.2-.1-.1-.2-.1-.3-.2-.1-.1-.2-.1-.3-.2-.1-.1-.2-.1-.3-.2-.1-.1-.2-.1-.3-.2-.1-.1-.2-.1-.3-.2-.1-.1-.2-.1-.3-.2-.1-.1-.2-.1-.3-.2-.1-.1-.2-.1-.3-.2-.1-.1-.2-.1-.4-.2s-.5-.3-.7-.4c-.1-.1-.2-.1-.3-.2-.1-.1-.3-.2-.4-.2-.1-.1-.2-.1-.4-.2-.1-.1-.3-.1-.4-.2-.1-.1-.3-.1-.4-.2-.1-.1-.3-.1-.4-.2-.1-.1-.3-.1-.4-.2-.1-.1-.3-.1-.4-.2-.1-.1-.3-.1-.4-.2-.1-.1-.3-.1-.4-.2-.1-.1-.3-.1-.4-.2-.2-.1-.3-.1-.5-.2-.1-.1-.3-.1-.4-.2-.2-.1-.3-.1-.5-.2s-.3-.1-.5-.2-.3-.1-.5-.2-.3-.1-.5-.2-.3-.1-.5-.2-.3-.1-.5-.2-.3-.1-.5-.2-.3-.1-.5-.2c-.1 0-.2-.1-.2-.1l7.3-.9c.9.4 7.7 3.1 11.5 5.8v6.6c-.1-.1-.2-.1-.3-.3 0 .1 0 0 0 0" style="fill:#312d2e"/><path id="apath16" d="M124 4039.1V4018c.1 0 .3.1.4.1.2.1.4.2.6.2.2.1.4.2.6.2.2.1.4.2.6.2.2.1.4.2.6.2l.6.3c.2.1.3.1.5.2s.4.2.7.3c.2.1.3.1.4.2.2.1.5.2.7.3.1.1.3.1.4.2.2.1.5.2.7.3.1.1.2.1.3.2.3.1.5.3.7.4.1 0 .1.1.2.1.3.1.5.3.8.4l.1.1c.3.2.5.3.8.5h.1c6.9 4 10.3 7.9 10.4 7.9l.7.9v-9.2l.2-59.2 21.9-1.8.1 66 .1 41.4-18.2-2.7c-3.2-15.8-22.6-25.4-25-26.6" style="fill:#434040"/><path id="apath18" class="ast3" d="m81.8 3996.5 10-36.7 9.5.2-14.8 53.8-4.7-17.3"/><path id="apath20" d="m91.2 3959-20.7-.4 10.4 37.9 5.6 20.4 15.9-57.8-11.2-.1zm50.4-47.1-39.7 133.6-31.6 5.6-15.4-45.5-36.8-108.4 36.6 4.3 8.8 32 34.7 2 10.5.6.1-.3 7.3-26.5 25.5 2.6" style="fill:#e52127"/><path id="apath22" d="M57.1 4044.5 7.6 3903.1l9.7-5.6 37.2 109.8 14.8 43.6-12.2-6.4" style="fill:#c12126"/><path id="apath24" class="ast3" d="m99.4 3934.8 6.8-24.5 9.1-.9-7.1 25.9-8.8-.5"/></g></g></svg><view id="accordion" viewBox="1024 520 32 32"/><svg version="1.1" id="bСлой_1" x="1024" y="520" viewBox="0 0 32 32" xml:space="preserve" width="32" height="32" xmlns="http://www.w3.org/2000/svg"><style>.st0{fill-rule:evenodd;clip-rule:evenodd;fill:#ef3e37}</style><path d="M17 9h-2v6H9v2h6v6h2v-6h6v-2h-6V9z"/></svg><view id="arrow-next" viewBox="1024 512 52 8"/><svg width="52" height="8" viewBox="0 0 52 8" x="1024" y="512" xmlns="http://www.w3.org/2000/svg"><path d="M51.354 4.354a.5.5 0 0 0 0-.708L48.172.464a.5.5 0 1 0-.707.708L50.293 4l-2.828 2.828a.5.5 0 1 0 .707.708l3.182-3.182ZM0 4.5h51v-1H0v1Z"/></svg><view id="arrow-prev" viewBox="1076 512 52 8"/><svg width="52" height="8" viewBox="0 0 52 8" x="1076" y="512" xmlns="http://www.w3.org/2000/svg"><path d="M.646 3.646a.5.5 0 0 0 0 .708l3.182 3.182a.5.5 0 1 0 .708-.708L1.707 4l2.829-2.828a.5.5 0 1 0-.708-.708L.646 3.646ZM52 3.5H1v1h51v-1Z"/></svg><view id="bar" viewBox="1263 520 26 18"/><svg width="26" height="18" viewBox="0 0 26 18" x="1263" y="520" xmlns="http://www.w3.org/2000/svg"><path fill-rule="evenodd" clip-rule="evenodd" d="M1 0a1 1 0 0 0 0 2h24a1 1 0 1 0 0-2H1ZM0 9a1 1 0 0 1 1-1h24a1 1 0 1 1 0 2H1a1 1 0 0 1-1-1Zm0 8a1 1 0 0 1 1-1h24a1 1 0 0 1 0 2H1a1 1 0 0 1-1-1Z"/></svg><view id="check" viewBox="1048 552 24 24"/><svg version="1.1" id="fСлой_1" x="1048" y="552" viewBox="0 0 24 24" xml:space="preserve" width="24" height="24" xmlns="http://www.w3.org/2000/svg"><style>.st0{fill:#ef3e37}</style><path d="M1.9 11.8c3 3.2 5.9 6 8.8 9.6 3.1-5.9 6.2-11.8 11.4-18.2l-1.4-.6c-4.4 4.5-7.8 8.7-10.7 13.7-2-1.8-5.4-4.3-7.4-5.6l-.7 1.1z"/></svg><view id="chevron" viewBox="0 0 512 512"/><svg width="512" height="512" viewBox="0 0 512.012 512.012" xml:space="preserve" xmlns="http://www.w3.org/2000/svg"><path d="M505.325 129.52c-9.241-9.802-24.699-10.167-34.452-.951l-214.88 203.566L41.138 128.57c-9.753-9.241-25.187-8.851-34.452.951-9.265 9.777-8.851 25.211.927 34.476l231.63 219.439a24.328 24.328 0 0 0 16.75 6.681 24.39 24.39 0 0 0 16.775-6.681l231.63-219.439c9.778-9.266 10.192-24.699.927-34.477z"/></svg><view id="close" viewBox="512 0 512 512"/><svg width="512" height="512" xml:space="preserve" viewBox="0 0 512 512" x="512" xmlns="http://www.w3.org/2000/svg"><path d="M59.65 473.6a21.25 21.25 0 0 1-15.028-36.278l392.7-392.7a21.253 21.253 0 0 1 30.056 30.056l-392.7 392.7A21.19 21.19 0 0 1 59.65 473.6z"/><path d="M452.35 473.6a21.19 21.19 0 0 1-15.028-6.222l-392.7-392.7a21.253 21.253 0 0 1 30.056-30.056l392.7 392.7A21.25 21.25 0 0 1 452.35 473.6z"/></svg><view id="close-circle" viewBox="0 512 512 512"/><svg width="512" height="512" viewBox="0 0 24 24" xml:space="preserve" y="512" xmlns="http://www.w3.org/2000/svg"><path fill-rule="evenodd" d="M12 23c6.075 0 11-4.925 11-11S18.075 1 12 1 1 5.925 1 12s4.925 11 11 11zm10-11c0 5.523-4.477 10-10 10S2 17.523 2 12 6.477 2 12 2s10 4.477 10 10zM7.146 16.854a.5.5 0 0 1 0-.708L11.293 12 7.146 7.854a.5.5 0 1 1 .708-.708L12 11.293l4.146-4.147a.5.5 0 0 1 .708.708L12.707 12l4.147 4.146a.5.5 0 0 1-.708.708L12 12.707l-4.146 4.147a.5.5 0 0 1-.708 0z" clip-rule="evenodd"/></svg><view id="close-circle-2" viewBox="512 512 512 512"/><svg width="512" height="512" viewBox="0 0 24 24" xml:space="preserve" x="512" y="512" xmlns="http://www.w3.org/2000/svg"><path fill-rule="evenodd" d="M12 23c6.075 0 11-4.925 11-11S18.075 1 12 1 1 5.925 1 12s4.925 11 11 11zm10-11c0 5.523-4.477 10-10 10S2 17.523 2 12 6.477 2 12 2s10 4.477 10 10zM7.146 16.854a.5.5 0 0 1 0-.708L11.293 12 7.146 7.854a.5.5 0 1 1 .708-.708L12 11.293l4.146-4.147a.5.5 0 0 1 .708.708L12.707 12l4.147 4.146a.5.5 0 0 1-.708.708L12 12.707l-4.146 4.147a.5.5 0 0 1-.708 0z" clip-rule="evenodd"/></svg><view id="facebook" viewBox="1056 520 30 30"/><svg width="30" height="30" viewBox="0 0 30 30" x="1056" y="520" xmlns="http://www.w3.org/2000/svg"><path d="M24.375 0c1.55 0 2.874.55 3.975 1.65C29.45 2.75 30 4.076 30 5.625v18.75c0 1.55-.55 2.874-1.65 3.975-1.1 1.1-2.426 1.65-3.975 1.65h-3.672V18.379h3.887l.586-4.531h-4.473v-2.891c0-.73.153-1.276.46-1.64.305-.365.9-.547 1.786-.547l2.383-.02V4.707c-.82-.117-1.98-.176-3.477-.176-1.77 0-3.186.521-4.248 1.563-1.06 1.041-1.591 2.513-1.591 4.414v3.34h-3.907v4.53h3.907V30H5.625c-1.55 0-2.874-.55-3.975-1.65C.55 27.25 0 25.924 0 24.375V5.625c0-1.55.55-2.874 1.65-3.975C2.75.55 4.076 0 5.625 0h18.75Z"/></svg><view id="instagram" viewBox="1086 520 30 30"/><svg width="30" height="30" viewBox="0 0 30 30" x="1086" y="520" xmlns="http://www.w3.org/2000/svg"><path d="M19.8 15a4.8 4.8 0 1 1-4.8-4.8 4.815 4.815 0 0 1 4.8 4.8ZM30 8.4v13.2a8.4 8.4 0 0 1-8.4 8.4H8.4A8.4 8.4 0 0 1 0 21.6V8.4A8.4 8.4 0 0 1 8.4 0h13.2A8.4 8.4 0 0 1 30 8.4ZM22.2 15a7.2 7.2 0 1 0-14.4 0 7.2 7.2 0 0 0 14.4 0Zm2.4-7.8a1.8 1.8 0 1 0-3.6 0 1.8 1.8 0 0 0 3.6 0Z"/></svg><view id="menu-back" viewBox="1072 552 24 24"/><svg width="24" height="24" viewBox="0 0 24 24" x="1072" y="552" xmlns="http://www.w3.org/2000/svg"><path fill-rule="evenodd" clip-rule="evenodd" d="M16.67 4.293a1 1 0 0 0-1.414 0l-6.963 6.963a1 1 0 0 0 0 1.414l6.963 6.963a1 1 0 1 0 1.415-1.414l-6.257-6.256 6.257-6.256a1 1 0 0 0 0-1.414Z"/></svg><view id="menu-bar" viewBox="1024 0 512 512"/><svg viewBox="0 0 512 512" width="512" height="512" x="1024" xmlns="http://www.w3.org/2000/svg"><path d="M128 102.4c0-14.1 11.5-25.6 25.6-25.6h332.8c14.1 0 25.6 11.5 25.6 25.6S500.5 128 486.4 128H153.6c-14.1 0-25.6-11.5-25.6-25.6Zm358.4 128H25.6C11.5 230.4 0 241.9 0 256s11.5 25.6 25.6 25.6h460.8c14.1 0 25.6-11.5 25.6-25.6s-11.5-25.6-25.6-25.6Zm0 153.6H256c-14.1 0-25.6 11.5-25.6 25.6s11.5 25.6 25.6 25.6h230.4c14.1 0 25.6-11.5 25.6-25.6S500.5 384 486.4 384Z"/></svg><view id="mts" viewBox="1096 552 24 24"/><svg viewBox="0 0 24 24" style="enable-background:new 0 0 24 24" xml:space="preserve" width="24" height="24" x="1096" y="552" xmlns="http://www.w3.org/2000/svg"><path d="M12 1.1c-1.4 0-3 1.6-4.4 4.2-1.4 2.7-2.3 6.1-2.3 9 0 4.3 2 8.6 6.6 8.6s6.6-4.3 6.6-8.6c0-2.9-.8-6.3-2.3-9C15 2.6 13.4 1.1 12 1.1z" style="fill:#e21f26"/></svg><view id="od" viewBox="1116 520 30 30"/><svg width="30" height="30" viewBox="0 0 30 30" x="1116" y="520" xmlns="http://www.w3.org/2000/svg"><path d="M18.105 8.828c0 .86-.302 1.592-.908 2.197a2.993 2.993 0 0 1-2.197.909c-.86 0-1.592-.303-2.197-.909a2.993 2.993 0 0 1-.909-2.197c0-.86.303-1.592.909-2.197A2.993 2.993 0 0 1 15 5.723c.86 0 1.592.302 2.197.908.606.605.909 1.338.909 2.197Zm4.18 7.09a1.592 1.592 0 0 0-.547-.625c-.234-.156-.543-.218-.927-.186-.385.033-.778.212-1.182.538-.13.104-.32.234-.567.39-.247.156-.774.365-1.582.625-.807.26-1.634.39-2.48.39a8.253 8.253 0 0 1-2.422-.35c-.768-.235-1.328-.47-1.68-.704l-.527-.351c-.404-.326-.797-.505-1.182-.538-.384-.032-.693.03-.927.186a1.591 1.591 0 0 0-.547.625c-.287.586-.3 1.07-.04 1.455.261.384.828.863 1.7 1.436 1.08.69 2.552 1.126 4.414 1.308l-.996 1.016a632.263 632.263 0 0 1-3.73 3.71 1.4 1.4 0 0 0-.43 1.026c0 .397.143.74.43 1.026l.175.175a1.4 1.4 0 0 0 1.026.43 1.4 1.4 0 0 0 1.025-.43l3.73-3.73a499.653 499.653 0 0 0 3.731 3.73 1.4 1.4 0 0 0 1.025.43 1.4 1.4 0 0 0 1.026-.43l.176-.175a1.4 1.4 0 0 0 .43-1.026 1.4 1.4 0 0 0-.43-1.025l-3.73-3.711-1.017-1.016c1.836-.182 3.301-.618 4.395-1.308.872-.573 1.439-1.052 1.7-1.436.26-.384.247-.87-.04-1.455Zm-.957-7.09c0-1.745-.618-3.236-1.855-4.473C18.236 3.118 16.745 2.5 15 2.5c-1.745 0-3.236.618-4.473 1.855C9.29 5.592 8.672 7.083 8.672 8.828c0 1.745.618 3.236 1.855 4.473 1.237 1.237 2.728 1.855 4.473 1.855 1.745 0 3.236-.618 4.473-1.855 1.237-1.237 1.855-2.728 1.855-4.473ZM30 5.625v18.75c0 1.55-.55 2.874-1.65 3.975-1.1 1.1-2.426 1.65-3.975 1.65H5.625c-1.55 0-2.874-.55-3.975-1.65C.55 27.25 0 25.924 0 24.375V5.625c0-1.55.55-2.874 1.65-3.975C2.75.55 4.076 0 5.625 0h18.75c1.55 0 2.874.55 3.975 1.65C29.45 2.75 30 4.076 30 5.625Z"/></svg><view id="phone" viewBox="1236 520 27 27"/><svg width="27" height="27" viewBox="0 0 27 27" x="1236" y="520" xmlns="http://www.w3.org/2000/svg"><path d="m17.343 18.48 2.24-2.24a2.19 2.19 0 0 1 2.34-.48l2.73 1.09a2.18 2.18 0 0 1 1.36 2v5a2.171 2.171 0 0 1-2.28 2.15C4.603 24.81.743 8.61.013 2.41A2.17 2.17 0 0 1 2.183 0h4.83a2.16 2.16 0 0 1 2 1.36l1.09 2.73a2.16 2.16 0 0 1-.47 2.34l-2.24 2.24s1.29 8.73 9.95 9.81Z"/></svg><view id="phone-new" viewBox="1120 552 24 24"/><svg viewBox="0 0 24 24" xml:space="preserve" width="24" height="24" x="1120" y="552" xmlns="http://www.w3.org/2000/svg"><path d="M17.4 22.1c1 .2 2.1-.1 2.8-.8.6-.6 1.1-1.2 1.6-1.9s.3-1.8-.5-2.3l-3-1.6c-1-.5-2.2-.5-3.1.1L13 17c-2.6-1.5-4.7-3.6-6.2-6.2l1.4-2.2c.7-.8.8-2 .2-3l-1.6-3c-.4-.8-1.4-1-2.2-.5-.7.5-1.3 1-1.9 1.6-.7.8-1 1.9-.8 2.9 1.8 7.7 7.8 13.7 15.5 15.5z"/></svg><view id="pinterest" viewBox="1146 520 30 30"/><svg width="30" height="30" viewBox="0 0 30 30" x="1146" y="520" xmlns="http://www.w3.org/2000/svg"><path d="M30 3.214v23.572A3.215 3.215 0 0 1 26.786 30H10.339c.656-1.098 1.5-2.679 1.835-3.971l1.025-3.91c.535 1.024 2.102 1.888 3.77 1.888 4.962 0 8.531-4.56 8.531-10.226 0-5.43-4.433-9.495-10.138-9.495-7.099 0-10.862 4.76-10.862 9.95 0 2.411 1.286 5.411 3.335 6.369.315.147.475.08.549-.221.053-.228.335-1.346.455-1.862a.485.485 0 0 0-.114-.468C8.05 17.23 7.5 15.717 7.5 14.304c0-3.63 2.745-7.139 7.426-7.139 4.038 0 6.87 2.752 6.87 6.69 0 4.446-2.242 7.527-5.169 7.527-1.614 0-2.819-1.333-2.437-2.974.462-1.955 1.36-4.064 1.36-5.477 0-3.55-5.057-3.06-5.057 1.674 0 1.453.49 2.444.49 2.444C8.878 25.942 8.564 26.056 9 29.946l.147.054H3.214A3.215 3.215 0 0 1 0 26.786V3.214A3.215 3.215 0 0 1 3.214 0h23.572A3.215 3.215 0 0 1 30 3.214Z"/></svg><view id="search" viewBox="1144 552 24 24"/><svg width="24" height="24" viewBox="0 0 24 24" x="1144" y="552" xmlns="http://www.w3.org/2000/svg"><path d="m18.031 16.617 4.283 4.282-1.415 1.415-4.282-4.283A8.96 8.96 0 0 1 11 20c-4.968 0-9-4.032-9-9s4.032-9 9-9 9 4.032 9 9a8.96 8.96 0 0 1-1.969 5.617Zm-2.006-.742A6.977 6.977 0 0 0 18 11c0-3.868-3.133-7-7-7-3.868 0-7 3.132-7 7 0 3.867 3.132 7 7 7a6.977 6.977 0 0 0 4.875-1.975l.15-.15Z"/></svg><view id="slider-next" viewBox="1168 552 24 24"/><svg viewBox="0 0 24 24" xml:space="preserve" width="24" height="24" x="1168" y="552" xmlns="http://www.w3.org/2000/svg"><path d="M23.9 12.2c.1-.1.1-.2 0-.3l-1.5-1.5c-.1-.1-.2-.1-.3 0-.1.1-.1.2 0 .3l1.3 1.3-1.3 1.3c-.1.1-.1.2 0 .3.1.1.2.1.3 0l1.5-1.4zM0 12.2h23.8v-.5H0v.5z"/></svg><view id="slider-prev" viewBox="1192 552 24 24"/><svg viewBox="0 0 24 24" xml:space="preserve" width="24" height="24" x="1192" y="552" xmlns="http://www.w3.org/2000/svg"><path d="M.1 11.8c-.1.1-.1.2 0 .3l1.5 1.5c.1.1.2.1.3 0 .1-.1.1-.2 0-.3L.6 12l1.3-1.3c.1-.1.1-.2 0-.3-.1-.1-.2-.1-.3 0L.1 11.8zm23.9 0H.3v.5H24v-.5z"/></svg><view id="vk" viewBox="1176 520 30 30"/><svg width="30" height="30" viewBox="0 0 30 30" x="1176" y="520" xmlns="http://www.w3.org/2000/svg"><path d="M19.61 0h-9.204C1.998 0 0 2 0 10.39v9.204C0 28 1.984 30 10.39 30h9.204C28 30 30 28.015 30 19.61v-9.204C30 1.998 28.015 0 19.61 0Zm4.609 21.405H22.03c-.828 0-1.077-.67-2.562-2.155-1.296-1.25-1.843-1.406-2.171-1.406-.454 0-.578.124-.578.75v1.968c0 .532-.172.845-1.563.845a8.538 8.538 0 0 1-6.672-4.001 17.439 17.439 0 0 1-3.453-7.25c0-.328.125-.625.75-.625h2.187c.563 0 .765.25.986.828 1.061 3.126 2.873 5.844 3.608 5.844.283 0 .405-.125.405-.828v-3.219c-.093-1.469-.873-1.593-.873-2.124a.54.54 0 0 1 .562-.501h3.437c.47 0 .626.234.626.796v4.345c0 .469.203.625.343.625.282 0 .5-.156 1.016-.672a17.999 17.999 0 0 0 2.688-4.47.942.942 0 0 1 .953-.624h2.188c.655 0 .795.329.655.796a27.312 27.312 0 0 1-2.937 5.048c-.235.36-.33.547 0 .969.218.328.985.969 1.5 1.578a9.729 9.729 0 0 1 1.844 2.562c.188.609-.126.921-.75.921Z"/></svg><view id="youtube" viewBox="1206 520 30 30"/><svg width="30" height="30" viewBox="0 0 30 30" x="1206" y="520" xmlns="http://www.w3.org/2000/svg"><path d="M17.95 22.95v-3.067c0-.651-.19-.977-.567-.977-.221 0-.436.104-.645.313v4.375c.209.208.424.312.645.312.377 0 .566-.319.566-.957Zm3.593-2.384h1.289v-.664c0-.664-.215-.996-.645-.996-.43 0-.644.332-.644.996v.664Zm-11.152-5.195v1.367H8.828V25H7.383v-8.262H5.859v-1.367h4.532Zm3.925 2.461V25h-1.308v-.781c-.508.586-1.003.879-1.485.879-.43 0-.703-.183-.82-.547-.078-.222-.117-.573-.117-1.055v-5.664h1.289v5.273c0 .313.007.482.02.508.013.196.11.293.293.293.26 0 .533-.202.82-.605v-5.469h1.308ZM19.238 20v2.852c0 .677-.045 1.152-.136 1.425-.157.547-.502.82-1.036.82-.455 0-.898-.266-1.328-.8V25H15.43v-9.629h1.308v3.145c.417-.521.86-.782 1.328-.782.534 0 .88.274 1.036.82.09.274.136.756.136 1.446Zm4.903 2.52v.175c0 .378-.013.658-.04.84-.038.287-.136.547-.292.781-.352.521-.873.782-1.563.782-.677 0-1.204-.248-1.582-.742-.273-.352-.41-.912-.41-1.68v-2.52c0-.768.13-1.328.39-1.68.378-.494.899-.742 1.563-.742.664 0 1.172.248 1.523.743.274.377.41.937.41 1.68v1.484h-2.597v1.27c0 .663.221.995.664.995.313 0 .508-.169.586-.508a4.108 4.108 0 0 0 .02-.459v-.42h1.328ZM15.332 6.425v3.047c0 .664-.208.996-.625.996-.417 0-.625-.332-.625-.996V6.426c0-.677.208-1.016.625-1.016.417 0 .625.339.625 1.016Zm10.41 13.926c0-2.305-.123-3.998-.37-5.079a2.672 2.672 0 0 0-.84-1.435 2.637 2.637 0 0 0-1.485-.674c-1.771-.195-4.453-.293-8.047-.293-3.58 0-6.257.098-8.027.293a2.607 2.607 0 0 0-1.494.674c-.424.384-.7.863-.83 1.435-.261 1.133-.391 2.826-.391 5.079 0 2.291.13 3.984.39 5.078.13.56.407 1.035.83 1.425.424.391.915.619 1.475.684 1.784.195 4.466.293 8.047.293 3.58 0 6.263-.098 8.047-.293a2.562 2.562 0 0 0 1.474-.684c.424-.39.7-.865.83-1.425.261-1.094.391-2.787.391-5.078ZM10.996 7.637l1.758-5.782h-1.465l-.996 3.81-1.035-3.81H7.734c.092.3.241.75.45 1.348l.468 1.348c.456 1.34.756 2.37.899 3.086v3.926h1.445V7.636Zm5.645 1.582v-2.54c0-.755-.137-1.32-.41-1.699-.378-.494-.886-.742-1.524-.742-.664 0-1.172.248-1.523.742-.274.378-.41.944-.41 1.7v2.539c0 .755.136 1.321.41 1.699.351.495.859.742 1.523.742.638 0 1.146-.247 1.523-.742.274-.352.41-.918.41-1.7Zm3.535 2.344h1.308V4.335h-1.308v5.527c-.287.404-.56.606-.82.606-.196 0-.3-.104-.313-.313-.013-.026-.02-.195-.02-.508V4.336h-1.308v5.723c0 .481.039.84.117 1.074.143.351.423.527.84.527.469 0 .97-.293 1.504-.879v.781ZM30 5.625v18.75c0 1.55-.55 2.874-1.65 3.975-1.1 1.1-2.426 1.65-3.975 1.65H5.625c-1.55 0-2.874-.55-3.975-1.65C.55 27.25 0 25.924 0 24.375V5.625c0-1.55.55-2.874 1.65-3.975C2.75.55 4.076 0 5.625 0h18.75c1.55 0 2.874.55 3.975 1.65C29.45 2.75 30 4.076 30 5.625Z"/></svg></svg>