<?xml version="1.0" encoding="utf-8"?><svg xmlns="http://www.w3.org/2000/svg" xmlns:xlink="http://www.w3.org/1999/xlink"><symbol id="a1" viewBox="0 0 24 24" style="enable-background:new 0 0 24 24" xml:space="preserve" xmlns="http://www.w3.org/2000/svg"><style>.ast3{fill:#8e191c}</style><g id="ag8" transform="matrix(1.33333 0 0 -1.33333 0 543.053)"><g id="ag10" transform="scale(.1)"><path id="apath12" d="m167.9 3961.4 4.5 2.7.1 99.6-4.3 4.2-.1-40.9-.2-65.6" style="fill:#231f20"/><path id="apath14" d="M143.9 4028.8c-.1 0-.1-.1-.2-.2l-.1-.1-.1-.1-.1-.1c-.1 0-.1-.1-.2-.1l-.1-.1c-.1 0-.1-.1-.2-.1s-.1-.1-.2-.1l-.2-.2-.2-.2-.2-.2-.2-.2-.2-.2-.2-.2-.2-.2-.2-.2-.2-.2c-.1-.1-.2-.1-.2-.2-.1-.1-.2-.1-.2-.2-.1-.1-.2-.1-.2-.2-.1-.1-.2-.1-.2-.2-.1-.1-.2-.1-.3-.2-.1-.1-.2-.1-.3-.2-.1-.1-.2-.1-.3-.2-.1-.1-.2-.1-.3-.2-.1-.1-.2-.1-.3-.2-.1-.1-.2-.1-.3-.2-.1-.1-.2-.1-.3-.2-.1-.1-.2-.1-.3-.2-.1-.1-.2-.1-.3-.2-.1-.1-.2-.1-.3-.2-.1-.1-.2-.1-.3-.2-.1-.1-.2-.1-.3-.2-.1-.1-.2-.1-.3-.2-.1-.1-.2-.1-.3-.2-.1-.1-.2-.1-.4-.2s-.5-.3-.7-.4c-.1-.1-.2-.1-.3-.2-.1-.1-.3-.2-.4-.2-.1-.1-.2-.1-.4-.2-.1-.1-.3-.1-.4-.2-.1-.1-.3-.1-.4-.2-.1-.1-.3-.1-.4-.2-.1-.1-.3-.1-.4-.2-.1-.1-.3-.1-.4-.2-.1-.1-.3-.1-.4-.2-.1-.1-.3-.1-.4-.2-.1-.1-.3-.1-.4-.2-.2-.1-.3-.1-.5-.2-.1-.1-.3-.1-.4-.2-.2-.1-.3-.1-.5-.2s-.3-.1-.5-.2-.3-.1-.5-.2-.3-.1-.5-.2-.3-.1-.5-.2-.3-.1-.5-.2-.3-.1-.5-.2-.3-.1-.5-.2c-.1 0-.2-.1-.2-.1l7.3-.9c.9.4 7.7 3.1 11.5 5.8v6.6c-.1-.1-.2-.1-.3-.3 0 .1 0 0 0 0" style="fill:#312d2e"/><path id="apath16" d="M124 4039.1V4018c.1 0 .3.1.4.1.2.1.4.2.6.2.2.1.4.2.6.2.2.1.4.2.6.2.2.1.4.2.6.2l.6.3c.2.1.3.1.5.2s.4.2.7.3c.2.1.3.1.4.2.2.1.5.2.7.3.1.1.3.1.4.2.2.1.5.2.7.3.1.1.2.1.3.2.3.1.5.3.7.4.1 0 .1.1.2.1.3.1.5.3.8.4l.1.1c.3.2.5.3.8.5h.1c6.9 4 10.3 7.9 10.4 7.9l.7.9v-9.2l.2-59.2 21.9-1.8.1 66 .1 41.4-18.2-2.7c-3.2-15.8-22.6-25.4-25-26.6" style="fill:#434040"/><path id="apath18" class="ast3" d="m81.8 3996.5 10-36.7 9.5.2-14.8 53.8-4.7-17.3"/><path id="apath20" d="m91.2 3959-20.7-.4 10.4 37.9 5.6 20.4 15.9-57.8-11.2-.1zm50.4-47.1-39.7 133.6-31.6 5.6-15.4-45.5-36.8-108.4 36.6 4.3 8.8 32 34.7 2 10.5.6.1-.3 7.3-26.5 25.5 2.6" style="fill:#e52127"/><path id="apath22" d="M57.1 4044.5 7.6 3903.1l9.7-5.6 37.2 109.8 14.8 43.6-12.2-6.4" style="fill:#c12126"/><path id="apath24" class="ast3" d="m99.4 3934.8 6.8-24.5 9.1-.9-7.1 25.9-8.8-.5"/></g></g></symbol><symbol viewBox="0 0 512.012 512.012" xml:space="preserve" id="chevron" xmlns="http://www.w3.org/2000/svg"><path d="M505.325 129.52c-9.241-9.802-24.699-10.167-34.452-.951l-214.88 203.566L41.138 128.57c-9.753-9.241-25.187-8.851-34.452.951-9.265 9.777-8.851 25.211.927 34.476l231.63 219.439a24.328 24.328 0 0 0 16.75 6.681 24.39 24.39 0 0 0 16.775-6.681l231.63-219.439c9.778-9.266 10.192-24.699.927-34.477z"/></symbol><symbol xml:space="preserve" viewBox="0 0 512 512" id="close" xmlns="http://www.w3.org/2000/svg"><path d="M59.65 473.6a21.25 21.25 0 0 1-15.028-36.278l392.7-392.7a21.253 21.253 0 0 1 30.056 30.056l-392.7 392.7A21.19 21.19 0 0 1 59.65 473.6z"/><path d="M452.35 473.6a21.19 21.19 0 0 1-15.028-6.222l-392.7-392.7a21.253 21.253 0 0 1 30.056-30.056l392.7 392.7A21.25 21.25 0 0 1 452.35 473.6z"/></symbol><symbol viewBox="0 0 24 24" id="menu-back" xmlns="http://www.w3.org/2000/svg"><path fill-rule="evenodd" clip-rule="evenodd" d="M16.67 4.293a1 1 0 0 0-1.414 0l-6.963 6.963a1 1 0 0 0 0 1.414l6.963 6.963a1 1 0 1 0 1.415-1.414l-6.257-6.256 6.257-6.256a1 1 0 0 0 0-1.414Z"/></symbol><symbol viewBox="0 0 512 512" id="menu-bar" xmlns="http://www.w3.org/2000/svg"><path d="M128 102.4c0-14.1 11.5-25.6 25.6-25.6h332.8c14.1 0 25.6 11.5 25.6 25.6S500.5 128 486.4 128H153.6c-14.1 0-25.6-11.5-25.6-25.6Zm358.4 128H25.6C11.5 230.4 0 241.9 0 256s11.5 25.6 25.6 25.6h460.8c14.1 0 25.6-11.5 25.6-25.6s-11.5-25.6-25.6-25.6Zm0 153.6H256c-14.1 0-25.6 11.5-25.6 25.6s11.5 25.6 25.6 25.6h230.4c14.1 0 25.6-11.5 25.6-25.6S500.5 384 486.4 384Z"/></symbol><symbol viewBox="0 0 24 24" style="enable-background:new 0 0 24 24" xml:space="preserve" id="mts" xmlns="http://www.w3.org/2000/svg"><path d="M12 1.1c-1.4 0-3 1.6-4.4 4.2-1.4 2.7-2.3 6.1-2.3 9 0 4.3 2 8.6 6.6 8.6s6.6-4.3 6.6-8.6c0-2.9-.8-6.3-2.3-9C15 2.6 13.4 1.1 12 1.1z" style="fill:#e21f26"/></symbol><symbol viewBox="0 0 27 27" id="phone" xmlns="http://www.w3.org/2000/svg"><path d="m17.343 18.48 2.24-2.24a2.19 2.19 0 0 1 2.34-.48l2.73 1.09a2.18 2.18 0 0 1 1.36 2v5a2.171 2.171 0 0 1-2.28 2.15C4.603 24.81.743 8.61.013 2.41A2.17 2.17 0 0 1 2.183 0h4.83a2.16 2.16 0 0 1 2 1.36l1.09 2.73a2.16 2.16 0 0 1-.47 2.34l-2.24 2.24s1.29 8.73 9.95 9.81Z"/></symbol><symbol viewBox="0 0 24 24" id="search" xmlns="http://www.w3.org/2000/svg"><path d="m18.031 16.617 4.283 4.282-1.415 1.415-4.282-4.283A8.96 8.96 0 0 1 11 20c-4.968 0-9-4.032-9-9s4.032-9 9-9 9 4.032 9 9a8.96 8.96 0 0 1-1.969 5.617Zm-2.006-.742A6.977 6.977 0 0 0 18 11c0-3.868-3.133-7-7-7-3.868 0-7 3.132-7 7 0 3.867 3.132 7 7 7a6.977 6.977 0 0 0 4.875-1.975l.15-.15Z"/></symbol></svg>