<svg xmlns="http://www.w3.org/2000/svg" xmlns:xlink="http://www.w3.org/1999/xlink" viewBox="0 0 190.65 135.6"><defs><style>.cls-1{isolation:isolate;}.cls-2{fill:url(#Безымянный_градиент_16);}.cls-3{fill:url(#Безымянный_градиент_16-2);}.cls-4{fill:url(#Безымянный_градиент_16-3);}.cls-5{fill:url(#Безымянный_градиент_4);}.cls-6{fill:url(#Безымянный_градиент_3);}.cls-7{fill:#bcbec0;mix-blend-mode:multiply;}</style><linearGradient id="Безымянный_градиент_16" x1="173.32" y1="26.48" x2="122.68" y2="103.66" gradientUnits="userSpaceOnUse"><stop offset="0" stop-color="#dd58f7"/><stop offset="1" stop-color="#cc1dcc"/></linearGradient><linearGradient id="Безымянный_градиент_16-2" x1="119.25" y1="-8.99" x2="68.62" y2="68.18" xlink:href="#Безымянный_градиент_16"/><linearGradient id="Безымянный_градиент_16-3" x1="151.46" y1="12.13" x2="100.82" y2="89.31" xlink:href="#Безымянный_градиент_16"/><linearGradient id="Безымянный_градиент_4" x1="19.42" y1="27.84" x2="88" y2="96.42" gradientUnits="userSpaceOnUse"><stop offset="0" stop-color="#207ac3"/><stop offset="1" stop-color="#115e9d"/></linearGradient><linearGradient id="Безымянный_градиент_3" x1="34.08" y1="13.21" x2="102.64" y2="81.76" gradientUnits="userSpaceOnUse"><stop offset="0" stop-color="#207ac3"/><stop offset="1" stop-color="#115e9d"/></linearGradient></defs><g class="cls-1"><g id="Слой_2" data-name="Слой 2"><g id="OBJECTS"><path class="cls-2" d="M190.65,59.57v40.54a3.2,3.2,0,0,1-1.62,2.8L133.1,135.17a3.22,3.22,0,0,1-3.23,0L95.3,115.23,72.37,102V79.33h19.7a3.22,3.22,0,0,1,3.23,3.23v4.31a3.25,3.25,0,0,0,1.62,2.8L118.29,102l11.58,6.69a3.22,3.22,0,0,0,3.23,0l33-19a3.24,3.24,0,0,0,1.61-2.8V82.56a3.22,3.22,0,0,0-3.23-3.23H134.72a3.24,3.24,0,0,1-3.24-3.23V69.67a3.25,3.25,0,0,1,1.62-2.8l17.51-10.1a3.23,3.23,0,0,1,1.61-.43h35.2A3.23,3.23,0,0,1,190.65,59.57Z"/><polygon class="cls-3" points="95.29 46.92 95.29 56.33 78.98 56.33 72.36 60.17 72.36 33.67 77.2 36.46 95.29 46.92"/><path class="cls-4" d="M185.79,36.47,169.27,46A3.22,3.22,0,0,1,166,46l-16.48-9.53L133.09,27a3.24,3.24,0,0,0-3.23,0l-11.58,6.7-23-13.25,34.57-20a3.26,3.26,0,0,1,3.23,0L161,16.59l24.76,14.28A3.24,3.24,0,0,1,185.79,36.47Z"/><path class="cls-5" d="M22.93,48.79V86.86a3.25,3.25,0,0,0,1.62,2.8l33,19a3.26,3.26,0,0,0,3.23,0L72.36,102l22.93,13.25L60.73,135.16a3.22,3.22,0,0,1-3.23,0L1.62,102.91A3.25,3.25,0,0,1,0,100.11V35.54a3.26,3.26,0,0,1,1.61-2.8L57.5.43a3.26,3.26,0,0,1,3.23,0L88.67,16.59l6.62,3.84,23,13.25-23,13.24L77.2,36.46l-4.84-2.78L60.73,27a3.22,3.22,0,0,0-3.23,0L24.55,46A3.23,3.23,0,0,0,22.93,48.79Z"/><path class="cls-6" d="M118.28,59.56V96.38a3.33,3.33,0,0,1-1.42,2.68l-1.58,1.18L96.91,89.66a3.25,3.25,0,0,1-1.62-2.8V82.55a3.22,3.22,0,0,0-3.23-3.23H62.34a3.23,3.23,0,0,1-3.23-3.23V69.66a3.25,3.25,0,0,1,1.62-2.8l11.63-6.69,5.87-3.4a3.18,3.18,0,0,1,1.62-.44h35.2A3.23,3.23,0,0,1,118.28,59.56Z"/><path class="cls-7" d="M95.29,82.55v0a3.23,3.23,0,0,0-3.23-3.18H72.37v3.22Z"/><polygon class="cls-7" points="68.28 104.32 90.64 117.9 90.64 117.9 95.29 115.22 72.36 101.97 68.28 104.32"/><polygon class="cls-7" points="95.29 48.67 72.36 36.75 72.36 33.67 95.29 46.92 95.29 48.67"/></g></g></g></svg>