<?xml version="1.0" encoding="utf-8"?>
<!-- Generator: Adobe Illustrator 27.0.0, SVG Export Plug-In . SVG Version: 6.00 Build 0)  -->
<svg version="1.1" id="Layer_1" xmlns="http://www.w3.org/2000/svg" xmlns:xlink="http://www.w3.org/1999/xlink" x="0px" y="0px"
	 viewBox="0 0 283.5 283.5" style="enable-background:new 0 0 283.5 283.5;" xml:space="preserve">
<style type="text/css">
	.st0{fill:#EF3E37;}
	.st1{fill:#FFFFFF;}
</style>
<rect x="0" y="0" class="st0" width="283.3" height="283.5"/>
<g>
	<defs>
		<rect id="SVGID_1_" x="0" y="0" width="283.3" height="283.5"/>
	</defs>
	<clipPath id="SVGID_00000176751780223561993420000003176145418520985504_">
		<use xlink:href="#SVGID_1_"  style="overflow:visible;"/>
	</clipPath>
</g>
<g>
	<defs>
		<rect id="SVGID_00000121959599137786553240000012735266220294602901_" x="0" y="0" width="283.3" height="283.5"/>
	</defs>
	<clipPath id="SVGID_00000032606307492369181970000006906475141275017094_">
		<use xlink:href="#SVGID_00000121959599137786553240000012735266220294602901_"  style="overflow:visible;"/>
	</clipPath>
</g>
<path class="st1" d="M250.5,203.7L250.5,203.7C250.5,203.7,250.5,203.7,250.5,203.7C250.5,203.7,250.5,203.7,250.5,203.7
	 M208.4,209.3C208.4,209.3,208.4,209.3,208.4,209.3C208.4,209.3,208.4,209.3,208.4,209.3L208.4,209.3L208.4,209.3z M186.5,212.4
	C186.6,212.4,186.6,212.4,186.5,212.4C186.7,212.2,186.6,212.4,186.5,212.4 M169.9,234c-0.2,1.2-0.4,2.5-0.7,3.7
	c-0.3,1.5-0.7,3-1.3,4.4c-0.2,0.5-0.4,0.9-0.7,1.3c-0.3,0.5-0.4,0.7-0.6,0.9c0,0,0,0-0.1,0.1c0-0.2-0.1-0.4-0.1-0.5
	c-0.1-0.4,0,0,0-0.3c0-0.6,0-1.2,0-1.7c0.1-1.3,0.3-2.5,0.6-3.8c1-4.2,2.5-8.2,4.2-12.1C170.8,228.5,170.3,231.2,169.9,234
	 M166.7,244.7C166.8,244.8,166.8,244.8,166.7,244.7C166.8,244.8,166.8,244.8,166.7,244.7C166.8,244.9,166.8,244.8,166.7,244.7
	 M166.7,244.7L166.7,244.7C166.7,244.7,166.7,244.7,166.7,244.7L166.7,244.7z M124.8,217.3c-0.1,0.1-0.2,0.3-0.3,0.4c0,0,0,0,0,0
	c0,0-0.1,0.1-0.1,0.1c-0.2,0.3-0.5,0.5-0.7,0.8c-0.1,0.1-0.5,0.4-0.5,0.4c-0.2,0.1-0.4,0.2-0.6,0.4c-0.1,0-0.2,0-0.2,0.1
	c0-0.1,0-0.1,0-0.3c0.1-0.6,0.4-1.1,0.7-1.6c0.7-1,1.6-1.8,2.3-2.7c0.7-0.8,1.4-1.7,2.1-2.5C126.7,214.1,125.9,215.7,124.8,217.3
	 M122.3,219.7C122.3,219.7,122.3,219.7,122.3,219.7C122.4,219.7,122.4,219.6,122.3,219.7 M85.7,214.7c0.1-1.9,0.4-3.5,0.8-5.3
	c0.3-1.6,0.7-3.3,1.2-4.9c0.2-0.6,0.4-1.2,0.6-1.8c0-0.1,0.1-0.2,0.1-0.4c0.2-0.4,0.4-0.8,0.6-1.3c0.9-1.8,2.2-4.1,4.1-4.9
	c0.4-0.2,0.8-0.3,1.2-0.3c0.1,0,0.5,0,0.4,0c0.1,0,0.7,0.2,0.5,0.1c0.2,0.1,0.1,0,0.2,0.1c0,0.1,0.1,0.2,0.1,0.2c0,0.1,0,0.2,0,0.2
	c0,0,0,0.1,0,0.1c0,0.1,0,0.1,0,0.2c0,0.9-0.1,1.3-0.3,2.2c-0.2,0.7-0.5,1.5-0.7,2.2c-0.1,0.1-0.1,0.3-0.2,0.4c0,0,0,0,0,0.1
	c-0.2,0.4-0.3,0.7-0.5,1.1c-0.4,0.8-0.8,1.6-1.3,2.3c-2,3.4-4.4,6.6-6.8,9.6C85.7,214.8,85.7,214.8,85.7,214.7 M45.6,183.2
	c0-0.1,0.2-0.5,0.2-0.6c0.1-0.3,0.2-0.6,0.4-0.8c0.2-0.5,0.5-1,0.7-1.5c0.4-0.8,0.9-1.6,1.4-2.4c0-0.1,0.1-0.1,0.1-0.2
	c0.1-0.1,0.1-0.1,0.2-0.2c-0.1,0.5-0.2,0.9-0.3,1.3c-0.4,1.4-1,2.7-1.6,4c-0.6,1.3-1.4,2.4-2.3,3.5
	C44.8,185.3,45.2,184.2,45.6,183.2 M61.4,183.9c0.2-0.6,0.5-1.2,0.7-1.8c0-0.1,0-0.1,0-0.1c0,0,0,0,0,0c0.1-0.1,0.1-0.3,0.2-0.4
	c0.1-0.3,0.3-0.6,0.4-0.9c0.4-0.9,0.9-1.8,1.4-2.6c0.1-0.2,0.3-0.4,0.4-0.6c-0.1,0.4-0.2,0.7-0.3,1.1c-0.9,3.2-2.2,6-3.6,9
	c-0.5,1-1,2.1-1.5,3.1C59.8,188.3,60.6,186.1,61.4,183.9 M78.2,183.4c0.2-0.6,0.4-1.2,0.7-1.8c0.1-0.3,0.2-0.5,0.3-0.8
	c0-0.1,0-0.1,0.1-0.2c0.1-0.1,0.1-0.2,0.2-0.4c0.4-0.9,0.8-1.8,1.3-2.7c0.2-0.3,0.4-0.7,0.6-1c0.1-0.1,0.1-0.1,0.2-0.2
	c0,0.1,0,0.2,0,0.3c0,1.5-0.4,3.1-0.9,4.8c-1.6,5.2-3.8,10.2-5.8,15.2c-0.3,0.8-0.6,1.6-0.9,2.4C75,193.7,76.4,188.4,78.2,183.4
	 M81.4,175.9L81.4,175.9C81.4,175.9,81.4,175.9,81.4,175.9L81.4,175.9z M81.4,175.9C81.4,175.9,81.4,175.9,81.4,175.9
	C81.4,175.9,81.4,175.9,81.4,175.9C81.4,175.9,81.4,175.9,81.4,175.9 M105.3,203C105.3,203,105.2,203,105.3,203
	C105.2,203,105.4,202.7,105.3,203 M107.6,204.3C107.8,204.1,107.7,204.4,107.6,204.3C107.6,204.4,107.6,204.3,107.6,204.3
	 M114.5,195.1C114.5,195.1,114.5,195.1,114.5,195.1c-0.1,0.1-0.1,0.1-0.2,0.2c-0.2,0.2-0.4,0.4-0.6,0.5c-0.1,0.1-0.2,0.2-0.3,0.3
	c0,0,0,0,0,0c0,0,0,0-0.1,0c-0.4,0.3-0.8,0.5-1.2,0.7c-0.1,0-0.3,0.1-0.4,0.2c-0.1,0-0.3,0.1-0.4,0.1c-0.2,0-0.3,0.1-0.5,0.1
	c0,0-0.1,0-0.2,0c-0.2,0-0.4,0-0.6,0c0.4-0.8,0.9-1.4,1.7-1.8c0.4-0.2,0.8-0.4,1.3-0.5c0.2,0,0.4,0,0.6,0c0,0,0.2,0,0.3,0
	C114.3,195,114.4,195.1,114.5,195.1C114.5,195.1,114.5,195.1,114.5,195.1 M205.7,189.8C205.7,189.8,205.7,189.8,205.7,189.8
	C205.7,189.8,205.7,189.8,205.7,189.8C205.7,189.8,205.7,189.8,205.7,189.8 M205.8,189.8C205.9,189.9,205.8,189.9,205.8,189.8
	C205.8,189.8,205.8,189.8,205.8,189.8 M255.4,200.5c-1.2,0.5-2.5,1-3.7,1.6c-0.5,0.2-1,0.5-1.5,0.8c0,0,0,0,0,0c0-0.3,0-0.5-0.1-0.8
	c0-0.6,0-1.2,0-1.8c0.1-1.4,0.2-2.9,0.4-4.3c0.1-1,0.3-2.1,0.5-3.2c0.6-1.4,1.1-2.8,1.5-4.3c0.2-0.9,0.6-2,0.3-2.9
	c-0.5-1.7-2.7-1.9-3.5-0.3c-0.5,0.9-0.6,1.9-0.9,2.8c-0.3,1.2-0.5,2.4-0.7,3.7c-0.4,1-0.8,1.9-1.2,2.8c-1.2,2.7-2.9,5.8-4.5,7.9
	c-0.4,0.5-0.8,1-1.3,1.4c-0.1,0.1-0.4,0.4-0.5,0.4c-0.2,0.1-0.4,0.2-0.5,0.4c-0.1,0-0.1,0.1-0.2,0.1c0,0-0.1,0-0.1,0
	c-0.1,0-0.2,0.1-0.3,0.1c0.6-0.1,0.1-0.1,0.1,0c0,0,0,0-0.1,0c0,0-0.1,0-0.1,0c0,0,0,0,0,0c-0.1-0.1-0.1,0,0,0c0,0,0,0,0,0
	c0,0,0,0-0.1-0.1c0,0-0.1-0.1-0.1-0.1c-0.1-0.1-0.1-0.2-0.2-0.3c0,0,0,0,0,0c0,0,0,0,0-0.1c-0.1-0.2-0.1-0.4-0.2-0.6
	c0-0.1-0.1-0.3-0.1-0.5c0-0.1,0-0.1,0-0.1c0,0,0,0,0-0.1c0-0.4-0.1-0.8-0.1-1.2c0-1.8,0.2-3.6,0.4-5.3c0.5-3.2,1.3-6.4,2-9.6
	c0.5-2.2-2.7-3.1-3.4-0.9c-0.8,2.8-1.9,5.5-3.1,8.1c-1.5,3.3-3.1,6.7-5.2,9.7c-0.3,0.5-0.6,0.8-1.1,1.4c-0.2,0.2-0.5,0.5-0.7,0.7
	c0,0-0.1,0.1-0.2,0.2c-0.1,0.1-0.2,0.2-0.3,0.2c-0.1,0-0.1,0.1-0.2,0.1c0,0,0,0-0.1,0c0,0,0,0,0,0c0,0,0,0,0,0c0,0,0,0,0,0
	c0,0,0,0,0,0c0,0,0,0,0,0c0,0,0,0,0,0c0,0,0,0,0,0c0,0,0.1,0,0.1,0c0,0,0,0,0,0c0,0-0.1,0-0.1,0c0,0-0.1-0.1-0.1-0.1c0,0,0,0,0,0
	c0,0,0,0,0,0c-0.1-0.3-0.2-0.5-0.2-0.8c0-0.1,0-0.2-0.1-0.4c0-0.1,0-0.3,0-0.3c0-0.4,0-0.7-0.1-1.1c0-1.6,0.1-3.3,0.4-4.9
	c0.2-1.1,0.5-2.2,0.7-3.4c0.1-0.2,0.3-0.4,0.4-0.6c1.1-1.6,2.3-3.5,2.6-5.5c0.2-0.9,0.2-2-0.4-2.8c-0.7-1.2-2.3-1.4-3.3-0.4
	c-0.5,0.6-0.7,1.3-1,1.9c-0.3,0.7-0.5,1.4-0.8,2c-0.4,1.3-0.7,2.6-1,3.9c-0.1,0.2-0.3,0.4-0.4,0.5c-1.7,2-4,2.6-6.5,3.2
	c-0.6,0.1-1.3,0.3-1.9,0.4c0.4-1.6,0.9-3.3,1.3-4.9c0.2-0.8,0.4-1.7,0.6-2.5c0-0.1,0-0.2,0.1-0.3c0.5-1.4,0.9-2.9,0-3.7
	c-0.7-0.6-1.9-0.8-2.5,0c-0.6,0.7-0.8,1.8-1,2.8c0,0.1-0.1,0.1-0.1,0.2c-0.1,0.2-0.1,0.3-0.2,0.5c0,0.1-0.2,0.4-0.2,0.4
	c-0.2,0.4-0.4,0.9-0.6,1.3c-1,2.1-2.1,4.2-3.3,6.2c-1.3,2.2-2.7,4.3-4.2,6.4c-0.6,0.8-1.3,1.6-2,2.4c-0.3,0.3-0.7,0.7-1,1
	c-0.2,0.2-0.3,0.3-0.5,0.5c-0.1,0.1-0.2,0.1-0.3,0.2c-0.2,0.2,0.1,0-0.1,0.1c-0.3,0.2-0.6,0.4-0.9,0.6c-0.1,0-0.3,0.1-0.3,0.1
	c-0.1,0-0.3,0.1-0.4,0.1c0,0,0,0,0,0c0,0,0,0,0,0c-0.4,0-0.1,0-0.3,0c0,0,0,0-0.1,0c-0.1,0-0.1-0.1-0.2-0.1c0,0-0.1-0.1-0.1-0.1
	c-0.4-0.6-0.5-1.4-0.5-2.3c0-0.5,0-1,0-1.6c0-0.5,0.1-1.2,0.1-1.5c0.3-1.7,0.8-3.5,1.4-5.2c0.1-0.1,0.3-0.2,0.4-0.4
	c1.7-1.6,3.3-3.2,4.9-4.9c1-1.1,2.4-2.4,2.9-4c0.3-0.9,0-2-0.8-2.5c-0.8-0.5-1.9-0.3-2.8,0c-2.3,0.8-3.8,2.9-5.1,4.9
	c-0.9,1.5-1.8,3.2-2.4,4.9c-0.2,0.2-0.4,0.4-0.7,0.6c0.1-0.5,0.2-0.9,0.2-1.4c0.2-1.6,0.2-3.4-0.3-5c-0.5-1.5-1.6-2.8-3.2-3.2
	c-2.1-0.5-3.7,0.7-5,2.2c-3.6,4.1-5.9,9.2-8.9,13.8c-0.2,0.2-0.3,0.5-0.4,0.7c0.7-4,1.5-8,2.4-12c0.3-1.2,1.1-2.9,0.1-3.9
	c-0.9-0.9-2.1-0.5-2.8,0.4c-0.6,0.8-0.9,1.9-1.1,2.8c-0.2,0.9-0.5,1.8-0.8,2.6c-0.7,2.2-1.5,4.4-2.4,6.5c-1.6,3.9-3.6,8.4-6.7,11.4
	c-0.5,0.4-1,0.9-1.5,1.1c-0.1,0-0.3,0.1-0.4,0.1c-0.1,0-0.1,0-0.2,0c-0.1,0-0.1,0-0.2,0c0,0,0,0,0,0v0c0-0.1-0.1-0.2-0.1-0.3
	c0,0-0.1-0.1-0.1-0.2c0-0.1-0.1-0.3-0.1-0.4c0-0.2-0.1-0.3-0.1-0.5c0-0.1,0-0.1,0-0.2c0,0,0,0,0,0c0,0,0,0,0,0
	c-0.4-3.7,0.3-7.2,1-10.8l0,0c0.8-2.4,1.5-4.8,2.2-7.3c0.4-1.6,1.5-5.1-1.2-5.1c-1.8,0-2.2,2.3-2.5,3.7c-0.2,0.8-0.4,1.7-0.6,2.5
	c-0.4,1.5-0.6,3.1-1,4.6c-0.5,1.6-1.1,3.2-1.7,4.8c-1.1,3-2.4,6-4.3,8.7c-0.1,0.1-0.2,0.3-0.3,0.4c-0.1,0.1,0.1-0.1-0.1,0.1
	c-0.2,0.2-0.4,0.5-0.6,0.7c-0.1,0.1-0.4,0.4-0.5,0.4c-0.1,0-0.1,0.1-0.2,0.1c-0.1,0.1-0.2,0.1-0.3,0.2c-0.1,0-0.2,0-0.2,0.1
	c-0.1,0-0.2,0-0.3,0c0,0,0,0-0.1,0c-0.1,0-0.1,0-0.1,0c-0.1,0-0.1-0.1-0.2-0.1c0,0-0.1-0.1-0.2-0.1c-0.1,0-0.1-0.1-0.2-0.1
	c-0.1-0.1-0.2-0.2-0.3-0.3c-0.1-0.1-0.2-0.2-0.2-0.3c-0.1-0.1-0.1-0.1-0.2-0.2c-0.4-0.5-0.7-1.1-0.9-1.7c-0.2-0.3-0.1-0.2-0.3-0.7
	c-0.2-0.4-0.3-0.8-0.4-1.2c-0.2-0.8-0.5-1.6-0.7-2.3c-0.8-3.3-1.2-6.3-1.3-9.6c0-1.2,0-2.4,0.1-3.7c0-0.1,0-0.1,0-0.2
	c0.5-0.8,1-1.5,1.5-2.3c0.1-0.1,0.1-0.2,0.2-0.3c3.1-4.1,6.8-7.7,10.8-11c3-2.4,6.2-4.6,9.6-6.5c1.7-0.9,3.4-1.7,5.1-2.6
	c0.6-0.3,1.1-0.7,1.2-1.4c0.2-1-0.3-1.8-1.2-2.2c-0.9-0.3-2,0.2-2.9,0.6c-0.9,0.3-1.7,0.7-2.5,1.1c-1.7,0.8-3.3,1.7-4.9,2.7
	c-4,2.5-7.6,5.4-11,8.7c-2.6,2.5-4.9,5.3-7,8.3c0.8-4,1.6-8,2.4-12c0.4-2.1,0.9-4.2,1.3-6.3c0.4-1.3,0.8-2.5,1.1-3.8
	c0.5-1.7,0.9-3.4,1.2-5.2c0.3-1.7,0.9-3.5,0.9-5.2c0-1.7-1.8-3.3-3.3-1.8c-0.3,0.3-0.5,0.7-0.5,1c0,0.1-0.1,0.3-0.1,0.4c0,0,0,0,0,0
	v0v0c-0.1,0.7-0.1,0.6-0.1,0.3c-0.1,0.5-0.2,1-0.3,1.6c-0.6,2.8-1.1,5.6-1.7,8.4c-0.2,1.1-0.4,2.2-0.7,3.3c-0.9,2.7-1.8,5.4-2.9,8
	c-2.1,5-4.6,9.8-7.7,14.3c-1.2,1.8-2.5,3.6-3.8,5.4c0-2.4-0.5-4.8-2.2-6.2c-2.5-2.2-5.8-0.5-7.7,1.5c-0.9,1-1.7,2.1-2.4,3.2
	c0.5-2.1,1-4.2,1.5-6.3c0.5-2.4,1.1-4.7,1.6-7.1c0-0.2,0.1-0.3,0.1-0.5c1-3.3,1.7-6.7,2.3-10.2c0.4-2.2-2.9-3.2-3.4-0.9
	c-0.5,2.3-1.1,4.6-1.6,6.9c-0.3,1.3-0.6,2.5-0.9,3.8c-0.6,1.9-1.2,3.7-1.9,5.5c-0.7,1.7-1.6,3.4-2.6,5c0,0,0,0.1-0.1,0.1
	c-0.7-0.5-1.5-0.8-2.5-0.9c-2.7-0.2-5.2,1.4-6.7,3.5c-1.1,1.6-1.5,4,0.4,5.2c1.4,0.9,3.2,0.8,4.7,0.2c1.3-0.5,2.4-1.2,3.4-2
	c0,0,0,0,0,0c0,0.2,0,0.4,0,0.6c0,0.8,0,1.5,0,2.3c-0.1,0.9-0.1,1.5-0.2,2.2c-0.6,3.5-1.7,7.2-3.1,10.2c-0.7,1.6-1.5,3.1-2.5,4.5
	c-0.5,0.7-0.6,0.9-1.2,1.5c-0.2,0.3-0.5,0.5-0.7,0.7c-0.1,0.1-0.2,0.2-0.3,0.3c-0.1,0.1-0.1,0.1-0.2,0.1c-0.2,0.2-0.5,0.3-0.7,0.5
	c-0.1,0.1-0.2,0.1-0.3,0.2c0,0,0,0,0,0c0,0,0,0-0.1,0c-0.2,0-0.9,0.2-0.4,0.1c-0.2,0-0.9,0-0.6,0c-0.2,0-0.3-0.1-0.5-0.1
	c-0.1,0-0.1-0.1-0.2-0.1c-0.1,0-0.1,0-0.1,0c0,0,0,0,0,0c-0.1-0.1-0.2-0.2-0.3-0.3c-0.1-0.1-0.1-0.2-0.2-0.3c0,0-0.1-0.2-0.1-0.3
	c-0.1-0.3-0.2-0.7-0.3-1.1c-0.1-0.5-0.1-0.4-0.1-0.9c0-0.5,0-1,0-1.5c0-0.9,0.1-2,0.2-2.8c0.1-0.9,0.3-1.8,0.5-2.7
	c0.3-0.4,0.5-0.8,0.8-1.3c1.1-1.9,2.3-3.9,3.1-6c0.3-1,0.5-2.1-0.3-2.9c-1-0.9-2.3-0.5-3.1,0.3c-1.4,1.4-2.3,3.5-2.9,5.4
	c-0.3,1-0.6,2-0.8,3c-1.3,2.1-2.7,4.2-4.2,6.3c-1.3,1.7-2.6,3.4-4.2,4.9c-0.6,0.6-1.3,1.2-1.9,1.6c-0.3,0.2-0.6,0.4-0.9,0.6
	c0,0-0.3,0.1-0.3,0.2c-0.1,0-0.3,0.1-0.4,0.1c-0.1,0-0.2,0-0.2,0.1c-0.1,0-0.2,0-0.3,0c0,0-0.3,0-0.4,0c-0.1,0-0.3-0.1-0.4-0.1
	c-0.1,0-0.2-0.1-0.3-0.1c-0.1,0-0.2-0.1-0.2-0.1c0,0-0.2-0.1-0.3-0.2c0,0-0.2-0.2-0.2-0.2c0,0-0.1-0.2-0.2-0.2
	c-0.1-0.1-0.1-0.2-0.2-0.2c-0.1-0.1-0.2-0.3-0.2-0.4c0-0.1-0.1-0.1-0.1-0.2c0,0,0,0,0,0c0,0,0,0,0,0c-0.2-0.6-0.4-1.3-0.5-2
	c2.6-3,5.1-6.1,7.3-9.4c2.2-3.3,4.4-6.7,5.5-10.5c0.6-2,0.9-4.6-0.6-6.3c-1.8-2.1-5.2-1.8-7.4-0.4c-3.6,2.3-5.5,6.7-6.6,10.7
	c-1.2,4.1-1.9,8.4-2,12.6c0,0.7,0,1.5,0.1,2.3c-1.7,2-3.6,3.9-5.4,5.3c-0.3,0.2-1,0.7-1.4,1c-0.1,0.1-0.2,0.1-0.3,0.2c0,0,0,0,0,0
	c-0.1,0-0.1,0-0.2,0.1c0,0,0,0,0,0c-0.2,0-0.4,0-0.6,0c0.5,0,0.1,0-0.1-0.1c0,0-0.1,0-0.1,0c-0.1-0.1-0.3-0.2-0.4-0.2
	c0,0-0.1-0.1-0.1-0.1c-0.1-0.1-0.2-0.2-0.3-0.3c0,0-0.1-0.1-0.2-0.2c-0.1-0.2-0.2-0.4-0.3-0.5c0-0.1-0.1-0.2-0.1-0.3
	c-0.1-0.2-0.2-0.4-0.2-0.6c-0.1-0.5-0.3-0.9-0.4-1.4c-0.1-0.2-0.1-0.5-0.1-0.7c0-0.1,0-0.2,0-0.2c0,0,0-0.2,0-0.3
	c-0.1-0.6-0.1-1.2-0.1-1.8c-0.1-2,0-3.9,0.1-5.8c0.7-1.4,1.4-2.9,2.1-4.3c1.9-4.1,3.4-8.5,5.1-12.7c2.1-5.1,4.4-10.2,5.7-15.5
	c0.4-1.7,0.8-3.6,0.4-5.3c-0.4-1.4-1.6-2.8-3.2-2.8c-1.7,0-2.9,1.5-3.7,2.9c-1.2,2-2.1,4.2-2.9,6.4c-1.1,2.9-2,5.8-2.8,8.8
	c-1.9,6.7-3.3,13.6-4,20.6c0,0.3,0,0.6-0.1,0.9c-0.8,1.6-1.7,3.2-2.6,4.8c-1.7,3-3.7,6.2-5.8,8.8c-0.5,0.5-0.9,1-1.4,1.5
	c-0.2,0.2-0.4,0.4-0.7,0.6c0,0,0,0,0,0c0,0,0,0,0,0c-0.1,0.1-0.2,0.2-0.4,0.2c-0.1,0.1-0.4,0.2-0.5,0.2c0,0-0.1,0-0.1,0
	c-0.1,0-0.1,0-0.1,0c-0.1,0-0.2,0-0.3,0c-0.1,0-0.1,0-0.2,0c0,0-0.1,0-0.1,0c-0.1-0.1-0.2-0.1-0.3-0.2c0,0-0.1-0.1-0.1-0.1
	c0,0-0.2-0.2-0.2-0.3c-0.1-0.1-0.2-0.2-0.2-0.3c-0.1-0.2-0.2-0.3-0.3-0.5c0-0.1-0.1-0.1-0.1-0.1c0,0,0,0,0-0.1
	c-0.1-0.2-0.2-0.4-0.2-0.6c-0.1-0.4-0.2-0.9-0.3-1.4c0-0.2-0.1-0.5-0.1-0.7c0-0.1,0-0.1,0-0.1c0-0.1,0-0.2,0-0.4
	c-0.1-1.2-0.2-2.4-0.2-3.7c0-4.2,0.5-8.2,1.2-12.2c1.2-2.9,2.5-5.9,3.9-8.7c1.7-3.5,3.5-6.9,5.1-10.5c1.4-3.2,3-6.4,3.8-9.8
	c0.5-2.2,0.6-5.8-2.6-5.8c-1.8,0-3,1.5-3.9,2.9c-1.3,1.9-2.2,4.2-3.1,6.3c-1.1,2.9-2.1,5.8-3,8.8c-1.5,5.1-2.7,10.3-3.6,15.6
	c0,0.1-0.1,0.1-0.1,0.2c-1.9,4.7-3.8,9.4-5.9,14c-0.9,2-1.9,4-3,5.9c-0.8,1.5-1.6,2.7-2.7,3.8c-0.1,0.1-0.2,0.2-0.3,0.3c0,0,0,0,0,0
	c0,0,0,0,0,0c-0.1,0.1-0.2,0.1-0.3,0.2c-0.1,0.1-0.1,0-0.1,0.1c-0.1,0-0.2,0.1-0.3,0.1c-0.1,0-0.1,0-0.2,0c0,0,0.1,0,0.1,0
	c0,0-0.1,0-0.1,0c0,0,0,0,0,0c0,0,0,0-0.1,0c0,0,0,0,0,0c0,0,0.1,0,0.1,0c-0.1,0-0.1,0-0.2,0c0,0,0,0,0,0c0,0,0,0,0,0
	c0,0-0.1,0-0.1,0c0,0,0,0,0,0l0,0c0,0,0,0,0,0c-0.1-0.1-0.2-0.2-0.3-0.3c0,0,0-0.1-0.1-0.1c-0.1-0.2-0.2-0.3-0.3-0.5
	c0-0.1-0.1-0.1-0.1-0.2c-0.1-0.2-0.1-0.4-0.2-0.5c-0.1-0.4-0.2-0.9-0.3-1.3c0-0.2-0.1-0.5-0.1-0.7c0,0,0,0,0-0.1c0-0.1,0-0.3,0-0.4
	c-0.6-5.5,0.2-11.1,1.1-16.3c1-5.7,2.3-11.4,3.9-17c1.6-1.2,3-2.4,4.3-3.9c1.8-2,3.1-4.3,4.1-6.7c0.9-2.1,2.3-5,1.6-7.4
	c-0.9-3.1-4.3-2.2-5.9-0.4c-1.4,1.6-2.4,3.5-3.3,5.5c-1.6,3.5-2.9,7.2-4,10.9c-7.7,4.8-30.5,9.5-39,10.6v3.6
	c15.3-1.9,32.7-6.9,36-8.4c0.6-0.3,1.1-0.6,1.7-0.9c-0.2,0.9-0.5,1.7-0.7,2.6c-1.6,6.8-2.9,13.7-3.4,20.7c-0.2,2.6-0.2,5.2,0.1,7.8
	c0.3,2,0.7,4.2,2.1,5.7c1.6,1.7,4,1.7,5.8,0.5c3.2-2.3,5-6.5,6.7-9.9c0.8-1.6,1.5-3.3,2.2-4.9c0,0.6-0.1,1.2-0.1,1.9
	c0,2.3,0.2,4.8,1.1,7c0.7,1.8,1.9,3.6,4,4c2.7,0.6,4.9-1.4,6.6-3.3c2.3-2.7,4.2-5.7,6-8.8c0,0.1,0,0.2,0,0.3
	c0.2,2.2,0.5,4.7,1.8,6.6c1.1,1.7,2.8,2.8,4.9,2.8c0.1,0,0.2,0,0.2-0.1c1.4-0.1,2.6-0.9,3.7-1.8c1.6-1.2,3-2.6,4.4-4
	c0.6,1.5,1.5,2.8,3,3.5c4,2.1,7.8-1.1,10.4-3.9c1.4-1.5,2.7-3.2,4-4.9c0.1,3,0.9,6.1,3.9,7.1c2.7,0.8,5-0.6,6.9-2.4
	c-2,6.8-3.7,13.8-5,20.8c-0.3,1.4-0.5,2.7-0.7,4.1c-0.1,1-0.4,2.2,0.1,3.1c0.5,0.9,1.7,1.2,2.5,0.7c0.7-0.4,1-1.2,1.2-1.9
	c0.6-2.2,1.1-4.5,1.6-6.7c1.9-8.3,3.9-16.5,5.8-24.8c0.3-1.1,0.5-2.3,0.8-3.4c0.9-2.5,1.8-5,2.8-7.5c1.2-3,2.7-6.3,4.6-9.2
	c0.2-0.3,0.4-0.6,0.6-0.8c0.1-0.1,0.2-0.2,0.3-0.4c0,0,0.2-0.2,0.2-0.3c0.4-0.5,0.8-0.9,1.2-1.3c0.1-0.1,0.4-0.3,0.5-0.4
	c0.1,0,0.1-0.1,0.1-0.1c0.1-0.1,0.2-0.2,0.4-0.2c0.2-0.1,0.7-0.3,0.2-0.1c0.2-0.1,0.4-0.1,0.6-0.2c0.1,0,0.1,0,0.2,0
	c0,0,0.1,0,0.1,0c0,0-0.1,0-0.1,0c0,0,0.1,0,0.1,0c0.1,0,0.1,0,0.1,0c0,0,0,0,0,0c0,0,0,0,0,0c0,0,0,0,0.1,0c0,0,0,0,0,0h0
	c0,0,0.1,0.1,0.1,0.1c0,0,0,0,0,0c0.1,0.2,0.2,0.4,0.3,0.6c0,0,0,0,0,0.1c0.1,0.2,0.1,0.3,0.2,0.5c0.1,0.3,0.1,0.6,0.2,0.9
	c0,0.1,0,0.1,0,0.1c0,0,0,0,0,0.1c0,0.2,0,0.4,0.1,0.6c0.2,2.1,0,4.2-0.4,6.2c-1.8,2.5-3.7,5-5.6,7.4c-0.8,1-1.7,2.1-2.6,3.1
	c-1.2,1.3-2.4,2.7-2.9,4.5c-0.4,1.4-0.2,3.1,0.9,4.1c0.9,0.9,2.2,1,3.4,0.7c3.4-0.9,5.5-5.1,6.8-8.1c1.4-3.2,2.5-6.6,3.2-10.1
	c3.4-4.6,6.9-9.3,9.8-14.2c0.7-1.2,1.3-2.4,2-3.6c-0.3,1.7-0.7,3.4-1,5.1c-0.4,2.1-0.8,4.1-1.2,6.2c-1.9,4-3.3,8.2-4.2,12.5
	c-0.3,1.7-0.6,3.4-0.8,5.1c-0.2,1.4-0.9,3.9,0.6,4.8c2.4,1.4,3.4-2.7,3.9-4.2c1.4-4.1,2.1-8.3,2.9-12.5c0.1-0.8,0.3-1.6,0.5-2.4
	c0.1,1.3,0.3,2.5,0.5,3.7c0.5,2.8,1.2,5.6,2.3,8.2c0.9,1.9,2.4,4.1,4.6,4.5c2.3,0.5,4.2-0.9,5.5-2.6c0.9-1.2,1.7-2.4,2.4-3.7
	c0.2,2,0.9,4.3,3.1,4.9c2.7,0.7,5.2-1.5,6.7-3.4c1.3-1.6,2.4-3.4,3.4-5.2c-0.1,0.5-0.2,1-0.3,1.6c-0.2,1.2-0.4,2.5-0.6,3.7
	c-0.7,1.3-1.4,2.7-2.1,4c-2.8,5.7-5.3,11.5-7.1,17.6c-0.8,2.6-1.5,5.4-1.4,8.1c0.1,1.7,0.4,3.9,2.1,4.9c1.8,1,3.6-0.3,4.7-1.7
	c1.6-2.2,2.4-5,2.9-7.6c1.5-7.1,2.5-14.4,3.7-21.6c0.1-0.9,0.3-1.7,0.4-2.6c1.4-2.6,2.8-5.1,4.3-7.6c2.7-4.4,5.1-9,8.2-13.2
	c0.6-0.8,1.2-1.6,2-2.2c0,0,0.1,0,0.1-0.1c0.1,0,0.1-0.1,0.2-0.1c0,0,0.2-0.1,0.2-0.1c0,0,0,0,0,0c0,0,0,0,0,0c0,0,0.1,0,0.1,0
	c0,0,0,0,0,0c0.1,0,0.2,0,0.2,0.1c0,0,0,0,0.1,0c0,0,0,0,0,0c0,0,0,0,0,0c0.1,0,0.4,0.5,0.1,0.1c0.1,0.1,0.3,0.5,0.3,0.5
	c0.1,0.3,0.2,0.5,0.2,0.8c0,0.1,0,0.1,0,0.1c0,0,0,0,0,0.1c0,0.2,0,0.4,0,0.6c0,0.4,0,0.8,0,1.2c0,0.4,0,0.8-0.1,1.2
	c0,0.1,0,0.3,0,0.4c0,0.3-0.1,0.6-0.1,0.8c-0.3,1.5-0.7,3.1-1.2,4.6c-1.3,1.2-2.6,2.5-3.8,3.8c-1.5,1.7-3.2,3.5-4.2,5.6
	c-0.4,0.9-0.6,2-0.1,2.9c0.5,0.9,1.5,1.2,2.5,1.2c1.5-0.1,2.8-1.1,3.7-2.3c2.3-2.7,3.8-6,4.9-9.4c0.1-0.1,0.2-0.2,0.4-0.4
	c0,0.2-0.1,0.3-0.1,0.5c-0.3,2.2-0.4,4.7,0.6,6.7c0.9,1.9,3,2.9,5,2.3c1.8-0.5,3.3-1.8,4.5-3.1c1.5-1.6,2.8-3.3,4.1-5.1
	c0,0.1,0,0.3-0.1,0.4c-0.1,1-0.2,2-0.3,3c-0.3,1.1-0.8,2.3-0.3,3.4c0.3,0.7,1.3,1,2,0.8c1.6-0.4,1.6-2.1,1.7-3.4c0,0,0-0.1,0-0.1
	c0.4-1.5,0.8-2.9,1.2-4.4c0.2-0.8,0.4-1.6,0.6-2.4c0.1,0,0.3-0.1,0.4-0.1c0.9-0.2,1.9-0.4,2.8-0.6c1.9-0.4,3.8-0.8,5.6-1.7
	c0,0,0,0,0,0c-0.2,1.7-0.3,3.3-0.2,5c0.1,2.3,0.8,5.5,3.7,5.6c2.6,0,4.6-2.4,6-4.4c1-1.4,1.8-2.8,2.6-4.3c0,1.8,0.2,3.5,1,5
	c0.7,1.3,2.1,2.2,3.7,2.1c1.4-0.1,2.7-0.9,3.7-1.8c1.4-1.3,2.6-2.9,3.6-4.6c0,0.1,0,0.2,0,0.2c0,1.2,0.1,2.5,0.8,3.5
	c0.8,1.3,2.3,1.6,3.6,0.9c2.4-1.3,4.8-2.4,7.4-3.2c9.8-3.1,17.4-3.9,25-4.9v-3.6C268.7,196.5,256.5,200.1,255.4,200.5"/>
</svg>
